<?xml version="1.0" encoding="utf-8"?>
<svg xmlns="http://www.w3.org/2000/svg" version="1.1" xmlns:xlink="http://www.w3.org/1999/xlink" viewBox="0 0 2288 272">
  <svg id="icon-index_step_1" viewBox="0 0 135 128" x="0" y="0">
    <path fill="#E9EAEB" d="M104.136 52.068c0 28.756-23.311 52.068-52.068 52.068s-52.068-23.311-52.068-52.068c0-28.756
                            23.311-52.068 52.068-52.068s52.068 23.311 52.068 52.068z"> </path>
    <path fill="#A3D4FF" d="M128 17.356h-82.441c-2.386 0-4.339 1.953-4.339 4.339v99.797c0 2.386 1.953 4.339 4.339
                            4.339h82.441c2.387 0 4.339-1.953 4.339-4.339v-99.797c0-2.386-1.952-4.339-4.339-4.339z">
    </path>
    <path fill="none" stroke="#2A5082" stroke-linejoin="miter" stroke-linecap="butt" stroke-miterlimit="10"
          stroke-width="4.339" d="M41.22 49.898v-28.203c0-2.386 1.953-4.339 4.339-4.339h82.441c2.387 0 4.339 1.953 4.339
                                  4.339v99.797c0 2.386-1.952 4.339-4.339 4.339h-82.441c-2.386
                                  0-4.339-1.953-4.339-4.339v-36.881"> </path>
    <path fill="#FFF" d="M49.898 26.034h73.763v91.119h-73.763v-91.119z"> </path>
    <path fill="none" stroke="#2A5082" stroke-linejoin="miter" stroke-linecap="butt" stroke-miterlimit="10"
          stroke-width="4.339" d="M80.271 49.898h30.373"> </path>
    <path fill="none" stroke="#2A5082" stroke-linejoin="miter" stroke-linecap="butt" stroke-miterlimit="10"
          stroke-width="4.339" d="M80.271 62.915h30.373"> </path>
    <path fill="none" stroke="#2A5082" stroke-linejoin="miter" stroke-linecap="butt" stroke-miterlimit="10"
          stroke-width="4.339" d="M73.763 45.559l-3.905 8.678h-0.434l-4.339-4.339"> </path>
    <path fill="none" stroke="#2A5082" stroke-linejoin="miter" stroke-linecap="butt" stroke-miterlimit="10"
          stroke-width="4.339" d="M73.763 58.576l-3.905 8.678h-0.434l-4.339-4.339"> </path>
    <path fill="none" stroke="#2A5082" stroke-linejoin="miter" stroke-linecap="butt" stroke-miterlimit="10"
          stroke-width="4.339" d="M49.898 58.576v-32.542h73.763v91.119h-73.763v-23.864"> </path>
    <path fill="#FFF" stroke="#2A5082" stroke-linejoin="miter" stroke-linecap="butt" stroke-miterlimit="10"
          stroke-width="4.339" d="M104.136 15.187h-8.678v-1.736c0-4.556-3.254-8.678-7.81-9.112-5.207-0.434-9.546
                                  3.688-9.546 8.678v2.17h-8.678c-3.688 0-6.508 2.82-6.508
                                  6.508v8.678h47.729v-8.678c0-3.688-2.82-6.508-6.508-6.508z"> </path>
    <path fill="none" stroke="#2A5082" stroke-linejoin="miter" stroke-linecap="butt" stroke-miterlimit="10"
          stroke-width="4.339" d="M86.78 10.848v4.339"> </path>
    <path fill="none" stroke="#2A5082" stroke-linejoin="round" stroke-linecap="butt" stroke-miterlimit="10"
          stroke-width="4.339" d="M22.78 42.305l-3.471-3.471c-1.736-1.736-4.339-1.736-6.075 0l-0.434 0.434c-1.736
                                  1.736-1.736 4.339 0 6.075l3.471 3.471"> </path>
    <path fill="#FFF" stroke="#2A5082" stroke-linejoin="round" stroke-linecap="butt" stroke-miterlimit="10"
          stroke-width="4.339" d="M15.187 49.898l49.898 49.898 17.356 8.678-8.678-17.356-49.898-49.898z"> </path>
    <path fill="#FFF" stroke="#2A5082" stroke-linejoin="round" stroke-linecap="butt" stroke-miterlimit="10"
          stroke-width="4.339" d="M73.763 91.119l-8.678 8.678"> </path>
    <path fill="none" stroke="#2A5082" stroke-linejoin="round" stroke-linecap="butt" stroke-miterlimit="10"
          stroke-width="4.339" d="M30.373 47.729l-15.187 15.187"> </path>
    <path fill="none" stroke="#2A5082" stroke-linejoin="round" stroke-linecap="butt" stroke-miterlimit="10"
          stroke-width="4.339" d="M8.678 56.407l21.695 21.695"> </path>
  </svg>

  <svg id="icon-index_step_2" viewBox="0 0 130 128" x="0" y="0">
    <path fill="#E9EAEB" d="M113.548 54.71c0 30.142-24.568 54.71-54.71 54.71s-54.71-33.239-54.71-54.71c0-30.142
                            24.568-54.71 54.71-54.71s54.71 24.568 54.71 54.71z"> </path>
    <path fill="#FFF" d="M119.742 18.581h-64c-4.542 0-8.258 3.716-8.258 8.258v61.935h72.258c4.542 0 8.258-3.716
                         8.258-8.258v-53.677c0-4.542-3.716-8.258-8.258-8.258z"> </path>
    <path fill="none" stroke="#2A5082" stroke-linejoin="miter" stroke-linecap="butt" stroke-miterlimit="10"
          stroke-width="4.129" d="M47.484 53.677v-26.839c0-4.542 3.716-8.258 8.258-8.258h64c4.542 0 8.258 3.716 8.258
                                  8.258v53.677c0 4.542-3.716 8.258-8.258 8.258h-57.806"> </path>
    <path fill="#E9EAEB" d="M61.935 41.29v35.097h16.516v-35.097z"> </path>
    <path fill="none" stroke="#2A5082" stroke-linejoin="miter" stroke-linecap="butt" stroke-miterlimit="10"
          stroke-width="4.129" d="M61.935 53.677v-12.387h16.516v35.097h-16.516v-2.064"> </path>
    <path fill="#FFF" stroke="#2A5082" stroke-linejoin="miter" stroke-linecap="butt" stroke-miterlimit="10"
          stroke-width="4.129" d="M78.452 55.742h16.516v20.645h-16.516v-20.645z"> </path>
    <path fill="#A3D4FF" stroke="#2A5082" stroke-linejoin="miter" stroke-linecap="butt" stroke-miterlimit="10"
          stroke-width="4.129" d="M94.968 33.032h16.516v43.355h-16.516v-43.355z"> </path>
    <path fill="#FFF" stroke="#2A5082" stroke-linejoin="miter" stroke-linecap="butt" stroke-miterlimit="10"
          stroke-width="4.129" d="M23.742 53.264c5.368 0 9.29-4.335
                                  9.29-9.703v-3.303c0-5.368-3.923-9.703-9.29-9.703s-9.29 4.335-9.29 9.703v3.097c0 5.368
                                  3.923 9.91 9.29 9.91z"> </path>
    <path fill="#2D7CB9" stroke="#2A5082" stroke-linejoin="miter" stroke-linecap="butt" stroke-miterlimit="10"
          stroke-width="4.129" d="M66.064 59.871c-3.303 0-43.768 0-47.484 0-9.703 0-16.516 3.097-16.516 12.387v18.581c0
                                  4.335 3.923 8.258 8.258 8.258h26.839v-28.903h18.581c6.194 0 10.323-5.781
                                  10.323-10.323z"> </path>
    <path fill="#2D7CB9" d="M12.387 72.258h24.774v55.742h-24.774v-55.742z"> </path>
    <path fill="none" stroke="#2A5082" stroke-linejoin="miter" stroke-linecap="butt" stroke-miterlimit="10"
          stroke-width="4.129" d="M37.161 72.258v55.742"> </path>
    <path fill="none" stroke="#2A5082" stroke-linejoin="miter" stroke-linecap="butt" stroke-miterlimit="10"
          stroke-width="4.129" d="M24.774 94.968v33.032"> </path>
    <path fill="none" stroke="#2A5082" stroke-linejoin="miter" stroke-linecap="butt" stroke-miterlimit="10"
          stroke-width="4.129" d="M12.387 72.258v55.742"> </path>
    <path fill="none" stroke="#2A5082" stroke-linejoin="miter" stroke-linecap="butt" stroke-miterlimit="10"
          stroke-width="4.129" d="M49.548 88.774h-4.129"> </path>
    <path fill="none" stroke="#2A5082" stroke-linejoin="miter" stroke-linecap="butt" stroke-miterlimit="10"
          stroke-width="4.129" d="M53.677 88.774h4.129"> </path>
  </svg>

  <svg id="icon-index_step_3" viewBox="0 0 161 128" x="0" y="0">
    <path fill="#FFF"
          d="M105.412 25.098h-50.196l-32.627 32.627v2.51l10.039 10.039v7.529l45.177 45.176c0 0 2.51 2.51 5.020 2.51
             4.267 0 7.529-3.263 7.529-7.529 0-2.51-2.51-5.020-2.51-5.020l5.020 5.020c0 0 2.51 2.51 5.020 2.51 4.267 0
             7.529-3.263 7.529-7.529 0-2.51-2.51-5.020-2.51-5.020l2.51 2.51c0 0 2.51 2.51 5.020 2.51 4.267 0 7.529-3.263
             7.529-7.529 0-2.51-2.51-5.020-2.51-5.020l-5.020-5.020c0 0 2.51 2.51 5.020 2.51 4.267 0 7.529-3.263
             7.529-7.529
             0-2.51-2.51-5.020-2.51-5.020l-2.51-2.51h2.51l10.039-10.039v-5.020l7.529-7.529v-2.51l-32.627-32.627z">
    </path>
    <path fill="#FFF" d="M45.176 92.863c0 0-2.51 2.51-5.020 2.51-4.267 0-7.529-3.263-7.529-7.529 0-2.51 2.51-5.020
                         2.51-5.020l10.039 10.039z"> </path>
    <path fill="#FFF" d="M55.216 102.902c0 0-2.51 2.51-5.020 2.51-4.267 0-7.529-3.263-7.529-7.529 0-2.51 2.51-5.020
                         2.51-5.020l10.039 10.039z"> </path>
    <path fill="#FFF" d="M65.255 112.941c0 0-2.51 2.51-5.020 2.51-4.267 0-7.529-3.263-7.529-7.529 0-2.51 2.51-5.020
                         2.51-5.020l10.039 10.039z"> </path>
    <path fill="#FFF" d="M75.294 122.98c0 0-2.51 2.51-5.020 2.51-4.267 0-7.529-3.263-7.529-7.529 0-2.51 2.51-5.020
                         2.51-5.020l10.039 10.039z"> </path>
    <path fill="#347CB8" d="M2.635 47.712l45.254-45.254 15.085 15.085-45.254 45.254-15.085-15.085z"> </path>
    <path fill="#A7D1EF" d="M98.007 17.543l15.085-15.085 45.254 45.254-15.085 15.085-45.254-45.254z"> </path>
    <path fill="#2A5081" d="M55.216 22.588h50.196v5.020h-50.196v-5.020z"> </path>
    <path fill="#2A5081"
          d="M120.471 85.333c-0.753 0-1.255-0.251-1.757-0.753-1.004-1.004-1.004-2.51
             0-3.514l9.286-9.286v-5.020l8.282-8.282c1.004-1.004 2.51-1.004 3.514 0s1.004 2.51 0 3.514l-6.776
             6.776v5.020l-10.792 10.792c-0.502 0.502-1.004 0.753-1.757 0.753z"> </path>
    <path fill="#2A5081"
          d="M115.451 102.902c-0.753 0-1.255-0.251-1.757-0.753l-27.608-27.608c-1.004-1.004-1.004-2.51
             0-3.514s2.51-1.004 3.514 0l27.608 27.608c1.004 1.004 1.004 2.51 0 3.514-0.502 0.502-1.004 0.753-1.757
             0.753z"> </path>
    <path fill="#2A5081"
          d="M115.451 100.392c-3.514 0-6.525-3.012-6.776-3.263-1.004-1.004-1.004-2.51 0-3.514s2.51-1.004 3.514 0c0.753
             0.753 2.259 1.757 3.263 1.757 2.761 0 5.020-2.259 5.020-5.020
             0-1.004-1.004-2.51-1.757-3.263-1.004-1.004-1.004-2.51 0-3.514s2.51-1.004 3.514 0c0.251 0.251 3.263 3.263
             3.263 6.776 0 5.522-4.518 10.039-10.039 10.039z"> </path>
    <path fill="#2A5081"
          d="M110.431 115.451c-3.514 0-6.525-3.012-6.776-3.263l-27.608-27.608c-1.004-1.004-1.004-2.51 0-3.514s2.51-1.004
             3.514 0l27.608 27.608c0.753 0.753 2.259 1.757 3.263 1.757 2.761 0 5.020-2.259 5.020-5.020
             0-1.004-1.004-2.51-1.757-3.263-1.004-1.004-1.004-2.51 0-3.514s2.51-1.004 3.514 0c0.251 0.251 3.263 3.263
             3.263 6.776 0 5.522-4.518 10.039-10.039 10.039z"> </path>
    <path fill="#2A5081"
          d="M97.882 122.98c-3.514 0-6.525-3.012-6.776-3.263l-25.098-25.098c-1.004-1.004-1.004-2.51 0-3.514s2.51-1.004
             3.514 0l25.098 25.098c0.753 0.753 2.259 1.757 3.263 1.757 2.761 0 5.020-2.259 5.020-5.020
             0-1.004-1.004-2.51-1.757-3.263-1.004-1.004-1.004-2.51 0-3.514s2.51-1.004 3.514 0c0.251 0.251 3.263 3.263
             3.263 6.776 0 5.522-4.518 10.039-10.039 10.039z"> </path>
    <path fill="#2A5081"
          d="M82.823 128c-3.514 0-6.525-3.012-6.776-3.263l-45.929-45.929v-7.529l-9.286-9.286c-1.004-1.004-1.004-2.51
             0-3.514s2.51-1.004 3.514 0l10.792 10.792v7.529l44.423 44.424c0.753 0.753 2.259 1.757 3.263 1.757 2.761 0
             5.020-2.259 5.020-5.020 0-1.004-1.004-2.51-1.757-3.263-1.004-1.004-1.004-2.51 0-3.514s2.51-1.004 3.514
             0c0.251 0.251 3.263 3.263 3.263 6.776 0 5.522-4.518 10.039-10.039 10.039z"> </path>
    <path fill="#2A5081"
          d="M40.157 97.882c-5.522 0-10.039-4.518-10.039-10.039 0-3.514 3.012-6.525 3.263-6.776 1.004-1.004 2.51-1.004
             3.514 0s1.004 2.51 0 3.514c-0.753 0.753-1.757 2.259-1.757 3.263 0 2.761 2.259 5.020 5.020 5.020 1.004 0
             2.51-1.004 3.263-1.757 1.004-1.004 2.51-1.004 3.514 0s1.004 2.51 0 3.514c-0.251 0.251-3.263 3.263-6.776
             3.263z"> </path>
    <path fill="#2A5081"
          d="M50.196 107.922c-5.522 0-10.039-4.518-10.039-10.039 0-3.514 3.012-6.525 3.263-6.776 1.004-1.004 2.51-1.004
             3.514 0s1.004 2.51 0 3.514c-0.753 0.753-1.757 2.259-1.757 3.263 0 2.761 2.259 5.020 5.020 5.020 1.004 0
             2.51-1.004 3.263-1.757 1.004-1.004 2.51-1.004 3.514 0s1.004 2.51 0 3.514c-0.251 0.251-3.263 3.263-6.776
             3.263z"> </path>
    <path fill="#2A5081"
          d="M60.235 117.961c-5.522 0-10.039-4.518-10.039-10.039 0-3.514 3.012-6.525 3.263-6.776 1.004-1.004 2.51-1.004
             3.514 0s1.004 2.51 0 3.514c-0.753 0.753-1.757 2.259-1.757 3.263 0 2.761 2.259 5.020 5.020 5.020 1.004 0
             2.51-1.004 3.263-1.757 1.004-1.004 2.51-1.004 3.514 0s1.004 2.51 0 3.514c-0.251 0.251-3.263 3.263-6.776
             3.263z"> </path>
    <path fill="#2A5081"
          d="M70.275 128c-5.522 0-10.039-4.518-10.039-10.039 0-3.514 3.012-6.525 3.263-6.776 1.004-1.004 2.51-1.004
             3.514 0s1.004 2.51 0 3.514c-0.753 0.753-1.757 2.259-1.757 3.263 0 2.761 2.259 5.020 5.020 5.020 1.004 0
             2.51-1.004 3.263-1.757 1.004-1.004 2.51-1.004 3.514 0s1.004 2.51 0 3.514c-0.251 0.251-3.263 3.263-6.776
             3.263z"> </path>
    <path fill="#2A5081"
          d="M120.471 87.843c-0.753 0-1.255-0.251-1.757-0.753l-33.38-33.38v-13.553h-4.016l-11.796 11.796c-0.251
             0.251-3.263 3.263-6.776 3.263-5.522 0-10.039-4.518-10.039-10.039 0-3.514 3.012-6.526
             3.263-6.776l15.059-15.059c1.004-1.004 2.51-1.004 3.514 0s1.004 2.51 0 3.514l-15.059 15.059c-0.753
             0.753-1.757 2.259-1.757 3.263 0 2.761 2.259 5.020 5.020 5.020 1.004 0 2.51-1.004
             3.263-1.757l13.302-13.302h11.043v16.565l31.874 31.874c1.004 1.004 1.004 2.51 0 3.514-0.502 0.502-1.004
             0.753-1.757 0.753z"> </path>
    <path fill="#2A5081" d="M100.392 60.235h-7.529v-5.020h7.529c2.761 0 5.020-2.259 5.020-5.020h5.020c0 5.522-4.518
                            10.039-10.039 10.039z"> </path>
    <path fill="#2A5081" d="M143.059 66.259l-48.69-48.69 16.816-16.816c1.004-1.004 2.51-1.004 3.514 0s1.004 2.51 0
                            3.514l-13.302 13.302 41.663 41.663 13.302-13.302c1.004-1.004 2.51-1.004 3.514 0s1.004 2.51 0
                            3.514l-16.816 16.816z"> </path>
    <path fill="#2A5081" d="M17.569 66.259l-16.816-16.816c-1.004-1.004-1.004-2.51 0-3.514s2.51-1.004 3.514 0l13.302
                            13.302 41.663-41.663-13.302-13.302c-1.004-1.004-1.004-2.51 0-3.514s2.51-1.004 3.514 0l16.816
                            16.816-48.69 48.69z"> </path>
    <path fill="#2A5081" d="M143.059 50.196c-0.753 0-1.255-0.251-1.757-0.753l-5.020-5.020c-1.004-1.004-1.004-2.51
                            0-3.514s2.51-1.004 3.514 0l5.020 5.020c1.004 1.004 1.004 2.51 0 3.514-0.502 0.502-1.004
                            0.753-1.757 0.753z"> </path>
    <path fill="#2A5081" d="M17.569 50.196c-0.753 0-1.255-0.251-1.757-0.753-1.004-1.004-1.004-2.51
                            0-3.514l5.020-5.020c1.004-1.004 2.51-1.004 3.514 0s1.004 2.51 0 3.514l-5.020 5.020c-0.502
                            0.502-1.004 0.753-1.757 0.753z"> </path>
  </svg>

  <svg id="icon-index_step_4" viewBox="0 0 113 128" x="0" y="0">
    <path fill="#FFF"
          d="M72.282 46.080h16.238s9.663 14.155 11.068 14.155 3.313 0.828 3.313-2.51 0.276-11.721 1.38-12.549 3.89 1.305
          5.020 0 1.129-43.495 1.129-43.495l-67.765 0.828s-1.079 41.211 0 41.512 9.236 1.154 9.236 1.154c0.426 0.709
          0.678 1.565 0.678 2.479 0 0.494-0.074 0.971-0.211 1.421l0.009-0.035c-0.778 1.732-13.528 21.76-15.36
          22.739-2.553 0.765-5.506 1.269-8.556 1.403l-0.078 0.003v42.993c1.661 0.282 3.142 0.89 4.432
          1.757l-0.040-0.026c3.357 1.65 7.508 3.349 11.775 4.792l0.774 0.227s13.553 1.531 15.059 1.531 8.634-0.728
          10.039-0.627 6.551 2.033 9.537 2.51 9.763 1.355 10.968-0.903 1.431-7.529 2.058-8.684c0.666-1.781 1.566-3.318
          2.682-4.67l-0.022 0.027c1.776-1.29 3.060-3.163 3.576-5.334l0.013-0.063c0.326-2.51-3.489-5.020-1.882-7.68
          1.209-2.476 2.251-5.371 2.977-8.389l0.060-0.295c-0.132-2.734-0.645-5.305-1.489-7.721l0.058
          0.191c-0.929-1.154-1.129 0.577-1.431-3.188s0.176-9.236-0.929-10.19-5.597-4.317-10.039-3.012-7.052 0.351-8.759
          1.983c-1.516 1.207-2.707 2.76-3.46 4.543l-0.028 0.076c0 0.929-6.626 3.614-6.626
          3.614-0.44-1.692-0.692-3.633-0.692-5.634 0-0.72 0.033-1.433 0.097-2.136l-0.007 0.091c0.797-2.176 1.583-4.907
          2.2-7.702l0.084-0.455c0.402-2.51 0.903-15.636 0.903-15.636z"> </path>
    <path fill="none" stroke="#2B5183" stroke-linejoin="miter" stroke-linecap="butt" stroke-miterlimit="10"
          stroke-width="5.0196" d="M12.549 115.451h17.569c5.647 0 7.103 7.529 15.059 7.529h20.078"> </path>
    <path fill="none" stroke="#2B5183" stroke-linejoin="miter" stroke-linecap="butt" stroke-miterlimit="10"
          stroke-width="5.0196" d="M82.849 82.823h12.524c2.772 0 5.020 2.247 5.020 5.020v5.020c0 2.772-2.247 5.020-5.020
                                   5.020h-12.524c-2.772 0-5.020-2.247-5.020-5.020v-5.020c0-2.772 2.247-5.020
                                   5.020-5.020z"> </path>
    <path fill="none" stroke="#2B5183" stroke-linejoin="miter" stroke-linecap="butt" stroke-miterlimit="10"
          stroke-width="5.0196" d="M80.339 67.765h12.524c2.772 0 5.020 2.247 5.020 5.020v5.020c0 2.772-2.247 5.020-5.020
                                   5.020h-12.524c-2.772 0-5.020-2.247-5.020-5.020v-5.020c0-2.772 2.247-5.020
                                   5.020-5.020z"> </path>
    <path fill="none" stroke="#2B5183" stroke-linejoin="miter" stroke-linecap="butt" stroke-miterlimit="10"
          stroke-width="5.0196" d="M80.314 97.882h12.524c2.772 0 5.020 2.247 5.020 5.020v5.020c0 2.772-2.247 5.020-5.020
                                   5.020h-12.524c-2.772 0-5.020-2.247-5.020-5.020v-5.020c0-2.772 2.247-5.020
                                   5.020-5.020z"> </path>
    <path fill="none" stroke="#2B5183" stroke-linejoin="miter" stroke-linecap="butt" stroke-miterlimit="10"
          stroke-width="5.0196" d="M75.294 112.941h12.524c2.772 0 5.020 2.247 5.020 5.020v2.51c0 2.772-2.247 5.020-5.020
                                   5.020h-12.524c-2.772 0-5.020-2.247-5.020-5.020v-2.51c0-2.772 2.247-5.020
                                   5.020-5.020z"> </path>
    <path fill="#A8D2F0" stroke="#2B5183" stroke-linejoin="miter" stroke-linecap="butt" stroke-miterlimit="10"
          stroke-width="5.0196" d="M2.51 67.765h25.098v55.216h-25.098v-55.216z"> </path>
    <path fill="none" stroke="#BDC0C4" stroke-linejoin="miter" stroke-linecap="butt" stroke-miterlimit="10"
          stroke-width="5.0196" d="M70.275 45.176h17.569l10.541 14.055c0.463 0.612 1.19 1.004 2.008 1.004 1.386 0
                                   2.51-1.124 2.51-2.51v0-12.549h7.529v-42.667h-67.765v10.039"> </path>
    <path fill="none" stroke="#BDC0C4" stroke-linejoin="miter" stroke-linecap="butt" stroke-miterlimit="10"
          stroke-width="5.0196" d="M55.216 45.176h-12.549v-32.627"> </path>
    <path fill="none" stroke="#2B5183" stroke-linejoin="miter" stroke-linecap="butt" stroke-miterlimit="10"
          stroke-width="5.0196" d="M48.188 102.902c11.348-4.324 19.314-15.003 19.576-27.576l0.001-0.032v-12.549c0-1.832
                                   2.51-5.848 2.51-14.005s-1.506-11.319-5.020-15.862-10.039-3.288-10.039 1.154v3.614c0
                                   10.039-3.639 16.64-10.24 24.069l-9.838 11.068h-5.020"> </path>
    <path fill="none" stroke="#2B5183" stroke-linejoin="miter" stroke-linecap="butt" stroke-miterlimit="10"
          stroke-width="5.0196" d="M15.059 75.294v10.039"> </path>
  </svg>

  <svg id="icon-category_1" viewBox="0 0 128 128" x="0" y="0">
    <path fill="#FFF" d="M46 12h80v108h-80v-108z"> </path>
    <path fill="#295182" d="M128 122h-84v-112h84v112zM48 118h76v-104h-76v104z"> </path>
    <path fill="#295182" d="M48 26h76v4h-76v-4z"> </path>
    <path fill="#295182" d="M52 18h4v4h-4v-4z"> </path>
    <path fill="#295182" d="M60 18h4v4h-4v-4z"> </path>
    <path fill="#295182" d="M68 18h4v4h-4v-4z"> </path>
    <path fill="#295182" d="M76 14h4v12h-4v-12z"> </path>
    <path fill="#295182" d="M84 18h36v4h-36v-4z"> </path>
    <path fill="#FFF" d="M62 110v-92c0-5.6-4.4-10-10-10h-40c-5.6 0-10 4.4-10 10v92c0 5.6 4.4 10 10 10h40c5.6 0 10-4.4
                         10-10z"> </path>
    <path fill="#295182" d="M2 26h60v4h-60v-4z"> </path>
    <path fill="#295182" d="M2 98h60v4h-60v-4z"> </path>
    <path fill="#295182" d="M52 122h-40c-6.6 0-12-5.4-12-12v-92c0-6.6 5.4-12 12-12h40c6.6 0 12 5.4 12 12v92c0 6.6-5.4
                            12-12 12zM12 10c-4.4 0-8 3.6-8 8v92c0 4.4 3.6 8 8 8h40c4.4 0 8-3.6
                            8-8v-92c0-4.4-3.6-8-8-8h-40z"> </path>
    <path fill="#295182" d="M24 16h16v4h-16v-4z"> </path>
    <path fill="#295182" d="M28 108h8v4h-8v-4z"> </path>
    <path fill="#A7D1EF" d="M8 34h48v15.8h-48v-15.8z"> </path>
    <path fill="#A7D1EF" d="M64 38h52v20h-52v-20z"> </path>
    <path fill="#A7D1EF" d="M100 62h16v32h-16v-32z"> </path>
  </svg>

  <svg id="icon-category_2" viewBox="0 0 125 128" x="0" y=" 0">
    <path fill="#BBBFC3" d="M90.424 8.44v29.739h10.047c3.416 0 6.028 2.612 6.028 6.028v49.231c11.052-9.042 18.085-22.706
                            18.085-38.179 0-21.903-14.267-40.59-34.16-46.819z"> </path>
    <path fill="none" stroke="#295182" stroke-linejoin="miter" stroke-linecap="butt" stroke-miterlimit="10"
          stroke-width="4.0188" d="M8.038 38.179v0c-3.416 0-6.028 2.612-6.028 6.028v58.273c0 3.416 2.612 6.028 6.028
                                   6.028h92.433c3.416 0 6.028-2.612
                                   6.028-6.028v-58.273c0-3.416-2.612-6.028-6.028-6.028h-4.019"> </path>
    <path fill="none" stroke="#295182" stroke-linejoin="miter" stroke-linecap="butt" stroke-miterlimit="10"
          stroke-width="4.0188" d="M24.113 8.038v-4.019c0-1.206 0.804-2.009 2.009-2.009h62.292c1.206 0 2.009 0.804 2.009
                                   2.009v40.188"> </path>
    <path fill="none" stroke="#295182" stroke-linejoin="miter" stroke-linecap="butt" stroke-miterlimit="10"
          stroke-width="4.0188" d="M32.151 126.593l4.019-4.019h38.179l4.019 4.019"> </path>
    <path fill="none" stroke="#295182" stroke-linejoin="miter" stroke-linecap="butt" stroke-miterlimit="10"
          stroke-width="4.0188" d="M42.198 118.556v-10.047h26.123v10.047"> </path>
    <path fill="none" stroke="#295182" stroke-linejoin="miter" stroke-linecap="butt" stroke-miterlimit="10"
          stroke-width="4.0188" d="M2.009 96.452h104.49"> </path>
    <path fill="none" stroke="#295182" stroke-linejoin="miter" stroke-linecap="butt" stroke-miterlimit="10"
          stroke-width="4.0188" d="M14.066 84.396v-70.33c0-1.206 0.804-2.009 2.009-2.009h62.292c1.206 0 2.009 0.804
                                   2.009 2.009v46.217"> </path>
    <path fill="none" stroke="#295182" stroke-linejoin="miter" stroke-linecap="butt" stroke-miterlimit="10"
          stroke-width="4.0188" d="M12.056 28.132h54.254"> </path>
    <path fill="none" stroke="#295182" stroke-linejoin="miter" stroke-linecap="butt" stroke-miterlimit="10"
          stroke-width="4.0188" d="M20.094 20.094h4.019"> </path>
    <path fill="none" stroke="#295182" stroke-linejoin="miter" stroke-linecap="butt" stroke-miterlimit="10"
          stroke-width="4.0188" d="M28.132 20.094h4.019"> </path>
    <path fill="none" stroke="#295182" stroke-linejoin="miter" stroke-linecap="butt" stroke-miterlimit="10"
          stroke-width="4.0188" d="M36.169 20.094h4.019"> </path>
    <path fill="none" stroke="#295182" stroke-linejoin="miter" stroke-linecap="butt" stroke-miterlimit="10"
          stroke-width="4.0188" d="M80.377 64.301v4.019"> </path>
    <path fill="none" stroke="#295182" stroke-linejoin="miter" stroke-linecap="butt" stroke-miterlimit="10"
          stroke-width="4.0188" d="M90.424 56.264v4.019"> </path>
    <path fill="none" stroke="#295182" stroke-linejoin="miter" stroke-linecap="butt" stroke-miterlimit="10"
          stroke-width="4.0188" d="M90.424 48.226v4.019"> </path>
    <path fill="#A7D1EF" stroke="#295182" stroke-linejoin="miter" stroke-linecap="butt" stroke-miterlimit="10"
          stroke-width="4.0188"
          d="M72.339 57.269l-3.215-7.837-6.028 2.612c-1.206-1.809-2.813-3.215-4.421-4.421l2.612-6.028-8.038-3.416-2.612
             6.028c-2.009-0.402-4.22-0.402-6.229 0l-2.612-6.028-7.837 3.215 2.612 6.028c-1.809 1.206-3.215 2.813-4.421
             4.421l-6.028-2.612-3.215 7.837 6.028 2.612c-0.402 2.009-0.402 4.22 0 6.229l-6.028 2.612 3.215 7.837
             6.028-2.612c1.206 1.808 2.813 3.215 4.421 4.421l-2.612 6.028 7.837 3.215 2.612-6.028c2.009 0.402 4.22 0.402
             6.229 0l2.612 6.028 7.837-3.215-2.612-6.028c1.809-1.206 3.215-2.813 4.421-4.421l6.028 2.612
             3.215-7.837-6.028-2.612c0.402-2.009 0.402-4.22 0-6.229l6.229-2.411z"> </path>
    <path fill="#FFF" stroke="#295182" stroke-linejoin="miter" stroke-linecap="butt" stroke-miterlimit="10"
          stroke-width="4.0188" d="M55.082 59.972c1.741 4.204-0.255 9.023-4.459
                                   10.765s-9.023-0.255-10.765-4.459c-1.741-4.204 0.255-9.023 4.459-10.765s9.023 0.255
                                   10.765 4.459z"> </path>
  </svg>

  <svg id="icon-category_3" viewBox="0 0 128 128" x="0" y="0">
    <path fill="#FFF" d="M2.207 4.414h123.586v118.51h-123.586v-118.51z"> </path>
    <path fill="#2A5081" d="M128 125.131h-128v-122.924h128v122.924zM4.414
                            120.717h119.172v-114.097h-119.172v114.097z"> </path>
    <path fill="#2A5081" d="M4.414 19.862h119.172v4.414h-119.172v-4.414z"> </path>
    <path fill="#2A5081" d="M8.828 11.034h4.414v4.414h-4.414v-4.414z"> </path>
    <path fill="#2A5081" d="M17.655 11.034h4.414v4.414h-4.414v-4.414z"> </path>
    <path fill="#2A5081" d="M26.483 11.034h4.414v4.414h-4.414v-4.414z"> </path>
    <path fill="#2A5081" d="M35.31 6.621h4.414v13.241h-4.414v-13.241z"> </path>
    <path fill="#2A5081" d="M44.138 11.034h75.034v4.414h-75.034v-4.414z"> </path>
    <path fill="#A7D1EF" d="M30.896 33.103h17.655v4.414h-17.655v-4.414z"> </path>
    <path fill="#A7D1EF" d="M30.896 41.931h30.896v4.414h-30.896v-4.414z"> </path>
    <path fill="#A7D1EF" d="M30.896 86.069h30.896v4.414h-30.896v-4.414z"> </path>
    <path fill="#A7D1EF" d="M30.896 50.759h30.896v4.414h-30.896v-4.414z"> </path>
    <path fill="#A7D1EF" d="M66.207 50.759h26.483v4.414h-26.483v-4.414z"> </path>
    <path fill="#A7D1EF" d="M44.138 59.586h17.655v4.414h-17.655v-4.414z"> </path>
    <path fill="#A7D1EF" d="M66.207 59.586h39.724v4.414h-39.724v-4.414z"> </path>
    <path fill="#A7D1EF" d="M44.138 77.241h17.655v4.414h-17.655v-4.414z"> </path>
    <path fill="#A7D1EF" d="M66.207 77.241h30.897v4.414h-30.897v-4.414z"> </path>
    <path fill="#A7D1EF" d="M44.138 68.414h17.655v4.414h-17.655v-4.414z"> </path>
    <path fill="#A7D1EF" d="M66.207 68.414h22.069v4.414h-22.069v-4.414z"> </path>
    <path fill="#A7D1EF" d="M30.896 94.897h30.896v4.414h-30.896v-4.414z"> </path>
    <path fill="#A7D1EF" d="M66.207 94.897h26.483v4.414h-26.483v-4.414z"> </path>
    <path fill="#A7D1EF" d="M44.138 103.724h17.655v4.414h-17.655v-4.414z"> </path>
    <path fill="#A7D1EF" d="M66.207 103.724h22.069v4.414h-22.069v-4.414z"> </path>
    <path fill="#BBBFC3" d="M13.241 33.103h8.828v4.414h-8.828v-4.414z"> </path>
    <path fill="#BBBFC3" d="M13.241 41.931h8.828v4.414h-8.828v-4.414z"> </path>
    <path fill="#BBBFC3" d="M13.241 50.759h8.828v4.414h-8.828v-4.414z"> </path>
    <path fill="#BBBFC3" d="M13.241 59.586h8.828v4.414h-8.828v-4.414z"> </path>
    <path fill="#BBBFC3" d="M13.241 68.414h8.828v4.414h-8.828v-4.414z"> </path>
    <path fill="#BBBFC3" d="M13.241 77.241h8.828v4.414h-8.828v-4.414z"> </path>
    <path fill="#BBBFC3" d="M13.241 86.069h8.828v4.414h-8.828v-4.414z"> </path>
    <path fill="#BBBFC3" d="M13.241 94.897h8.828v4.414h-8.828v-4.414z"> </path>
    <path fill="#BBBFC3" d="M13.241 103.724h8.828v4.414h-8.828v-4.414z"> </path>
  </svg>

  <svg id="icon-category_4" viewBox="0 0 128 128" x="0" y="0">
    <path fill="#FFF" d="M126 104c0 3.4-2.6 6-6 6h-112c-3.4 0-6-2.6-6-6v-80c0-3.4 2.6-6 6-6h112c3.4 0 6 2.6 6
                         6v80z"> </path>
    <path fill="#2A5081" d="M120 112h-112c-4.4 0-8-3.6-8-8v-80c0-4.4 3.6-8 8-8h112c4.4 0 8 3.6 8 8v80c0 4.4-3.6 8-8 8zM8
                            20c-2.2 0-4 1.8-4 4v80c0 2.2 1.8 4 4 4h112c2.2 0 4-1.8
                            4-4v-80c0-2.2-1.8-4-4-4h-112z"> </path>
    <path fill="#A7D1EF" d="M8 24h112v64h-112v-64z"> </path>
    <path fill="#FFF" d="M52 72v-32l32 16z"> </path>
    <path fill="#2A5081" d="M48 40h4v32h-4v-32z"> </path>
    <path fill="#BBBFC3" d="M36 96h64v4h-64v-4z"> </path>
    <path fill="#BBBFC3" d="M8 96h24v4h-24v-4z"> </path>
    <path fill="#2A5081" d="M32 96h4v4h-4v-4z"> </path>
    <path fill="#2A5081" d="M104 96h16v4h-16v-4z"> </path>
  </svg>

  <svg id="icon-category_5" viewBox="0 0 128 128" x="0" y="0">
    <path fill="#FFF" d="M91.733 46.933h-55.467v-44.8h42.667l12.8 12.8z"> </path>
    <path fill="#FFF" d="M104.533 76.8v-36.267h-6.4v-2.133h-68.267v2.133h-6.4v36.267l-17.067
                         32v17.067h115.2v-17.067z"> </path>
    <path fill="#A7D1EF" d="M91.733 68.267c0 15.36-12.373 17.067-27.733
                            17.067s-27.733-1.707-27.733-17.067h55.467z"> </path>
    <path fill="#2A5081" d="M123.733 128h-119.467v-19.627l17.067-32v-37.973h8.533v4.267h-4.267v34.773l-17.067
                            32v14.293h110.933v-14.293l-17.067-32v-34.773h-4.267v-4.267h8.533v37.973l17.067 32z"> </path>
    <path fill="#2A5081" d="M25.6 46.933h76.8v4.267h-76.8v-4.267z"> </path>
    <path fill="#2A5081" d="M25.6 64h76.8v4.267h-76.8v-4.267z"> </path>
    <path fill="#2A5081" d="M93.867 46.933h-4.267v-29.867h-12.8v-12.8h-38.4v42.667h-4.267v-46.933h46.933v12.8h12.8z"> </path>
    <path fill="#2A5081" d="M77.489 3.707l3.017-3.017 12.822 12.822-3.017 3.017-12.822-12.822z"> </path>
    <path fill="#2A5081" d="M42.667 21.333h42.667v4.267h-42.667v-4.267z"> </path>
    <path fill="#2A5081" d="M42.667 29.867h42.667v4.267h-42.667v-4.267z"> </path>
    <path fill="#2A5081" d="M42.667 38.4h42.667v4.267h-42.667v-4.267z"> </path>
    <path fill="#BBBFC3" d="M42.667 4.267h29.867v12.8h-29.867v-12.8z"> </path>
    <path fill="#2A5081" d="M29.867 55.467h68.267v4.267h-68.267v-4.267z"> </path>
    <path fill="#2A5081" d="M17.067 72.533h-4.267v-17.067h8.533v4.267h-4.267z"> </path>
    <path fill="#2A5081" d="M106.667 55.467h4.267v4.267h-4.267v-4.267z"> </path>
    <path fill="#2A5081" d="M110.933 51.2h4.267v12.8h-4.267v-12.8z"> </path>
    <path fill="#2A5081" d="M87.467 93.867h4.267v4.267h-4.267v-4.267z"> </path>
    <path fill="#2A5081" d="M96 93.867h4.267v4.267h-4.267v-4.267z"> </path>
    <path fill="#2A5081" d="M78.933 93.867h4.267v4.267h-4.267v-4.267z"> </path>
    <path fill="#2A5081" d="M44.8 93.867h4.267v4.267h-4.267v-4.267z"> </path>
    <path fill="#2A5081" d="M36.267 93.867h4.267v4.267h-4.267v-4.267z"> </path>
    <path fill="#2A5081" d="M27.733 93.867h4.267v4.267h-4.267v-4.267z"> </path>
    <path fill="#2A5081" d="M70.4 93.867h4.267v4.267h-4.267v-4.267z"> </path>
    <path fill="#2A5081" d="M61.867 93.867h4.267v4.267h-4.267v-4.267z"> </path>
    <path fill="#2A5081" d="M53.333 93.867h4.267v4.267h-4.267v-4.267z"> </path>
    <path fill="#2A5081" d="M83.2 102.4h4.267v4.267h-4.267v-4.267z"> </path>
    <path fill="#2A5081" d="M91.733 102.4h4.267v4.267h-4.267v-4.267z"> </path>
    <path fill="#2A5081" d="M100.267 102.4h4.267v4.267h-4.267v-4.267z"> </path>
    <path fill="#2A5081" d="M74.667 102.4h4.267v4.267h-4.267v-4.267z"> </path>
    <path fill="#2A5081" d="M66.133 102.4h4.267v4.267h-4.267v-4.267z"> </path>
    <path fill="#2A5081" d="M57.6 102.4h4.267v4.267h-4.267v-4.267z"> </path>
    <path fill="#2A5081" d="M49.067 102.4h4.267v4.267h-4.267v-4.267z"> </path>
    <path fill="#2A5081" d="M40.533 102.4h4.267v4.267h-4.267v-4.267z"> </path>
    <path fill="#2A5081" d="M32 102.4h4.267v4.267h-4.267v-4.267z"> </path>
    <path fill="#2A5081" d="M23.467 102.4h4.267v4.267h-4.267v-4.267z"> </path>
    <path fill="#2A5081" d="M32 110.933h4.267v4.267h-4.267v-4.267z"> </path>
    <path fill="#2A5081" d="M23.467 110.933h4.267v4.267h-4.267v-4.267z"> </path>
    <path fill="#2A5081" d="M100.267 110.933h4.267v4.267h-4.267v-4.267z"> </path>
    <path fill="#2A5081" d="M91.733 110.933h4.267v4.267h-4.267v-4.267z"> </path>
    <path fill="#2A5081" d="M40.533 110.933h46.933v4.267h-46.933v-4.267z"> </path>
  </svg>

  <svg id="icon-category_6" viewBox="0 0 128 128" x="0" y="0">
    <path fill="#A7D1EF" d="M128 64c0 35.346-28.654 64-64 64s-64-28.654-64-64c0-35.346 28.654-64 64-64s64 28.654 64
                            64z"> </path>
    <path fill="#2A5081" d="M104 64c-0.6 0-1-0.2-1.4-0.6l-8-8 2.8-2.8 6.6 6.6 6.6-6.6 2.8 2.8-8 8c-0.4 0.4-0.8 0.6-1.4
                            0.6z"> </path>
    <path fill="#2A5081" d="M106 62h-4v-24c0-6.6-5.4-12-12-12h-24v-4h24c8.8 0 16 7.2 16 16v24z"> </path>
    <path fill="#2A5081" d="M30.6 75.4l-6.6-6.6-6.6 6.6-2.8-2.8 8-8c0.8-0.8 2-0.8 2.8 0l8 8-2.8 2.8z"> </path>
    <path fill="#2A5081" d="M62 106h-24c-8.8 0-16-7.2-16-16v-24h4v24c0 6.6 5.4 12 12 12h24v4z"> </path>
    <path fill="#2A5081" d="M54 62h4v4h-4v-4z"> </path>
    <path fill="#2A5081" d="M62 62h4v4h-4v-4z"> </path>
    <path fill="#2A5081" d="M70 62h4v4h-4v-4z"> </path>
    <path fill="#BBBFC3" d="M28 12h-26v12h18l8-8z"> </path>
    <path fill="#FFF" d="M56 52h-54v-28h18l8-8h28z"> </path>
    <path fill="#2A5081" d="M20 26h-18c-1.2 0-2-0.8-2-2v-12c0-1.2 0.8-2 2-2h26c1.2 0 2 0.8 2 2v4c0 0.6-0.2 1-0.6 1.4l-8
                            8c-0.4 0.4-0.8 0.6-1.4 0.6zM4 22h15.2l6.8-6.8v-1.2h-22v8z"> </path>
    <path fill="#2A5081" d="M56 54h-54c-1.2 0-2-0.8-2-2v-28c0-1.2 0.8-2 2-2h17.2l7.4-7.4c0.4-0.4 0.8-0.6 1.4-0.6h28c1.2
                            0 2 0.8 2 2v36c0 1.2-0.8 2-2 2zM4 50h50v-32h-25.2l-7.4 7.4c-0.4 0.4-0.8 0.6-1.4
                            0.6h-16v24z"> </path>
    <path fill="#BBBFC3" d="M94 78h-26v12h18l8-8z"> </path>
    <path fill="#FFF" d="M122 118h-54v-28h18l8-8h28z"> </path>
    <path fill="#2A5081" d="M86 92h-18c-1.2 0-2-0.8-2-2v-12c0-1.2 0.8-2 2-2h26c1.2 0 2 0.8 2 2v4c0 0.6-0.2 1-0.6 1.4l-8
                            8c-0.4 0.4-0.8 0.6-1.4 0.6zM70 88h15.2l6.8-6.8v-1.2h-22v8z"> </path>
    <path fill="#2A5081" d="M122 120h-54c-1.2 0-2-0.8-2-2v-28c0-1.2 0.8-2 2-2h17.2l7.4-7.4c0.4-0.4 0.8-0.6
                            1.4-0.6h28c1.2 0 2 0.8 2 2v36c0 1.2-0.8 2-2 2zM70 116h50v-32h-25.2l-7.4 7.4c-0.4 0.4-0.8
                            0.6-1.4 0.6h-16v24z"> </path>
  </svg>

  <svg id="icon-category_62" viewBox="0 0 128 128" x="0" y="0">
    <path fill="#A7D1EF" d="M120.686 44.089h-113.778l56.889-36.571z"> </path>
    <path fill="#2A5081" d="M127.594 46.121h-127.594l63.797-41.041 63.797 41.041zM13.816
                            42.057h99.962l-49.981-32.102-49.981 32.102z"> </path>
    <path fill="#F4F5F5" d="M10.971 54.248h20.317v6.095h-20.317v-6.095z"> </path>
    <path fill="#2A5081" d="M33.321 62.375h-24.381v-8.127h4.064v4.063h16.254v-4.063h4.063z"> </path>
    <path fill="#F4F5F5" d="M39.416 54.248h20.317v6.095h-20.317v-6.095z"> </path>
    <path fill="#2A5081" d="M61.765 62.375h-24.381v-8.127h4.063v4.063h16.254v-4.063h4.063z"> </path>
    <path fill="#F4F5F5" d="M67.86 54.248h20.317v6.095h-20.317v-6.095z"> </path>
    <path fill="#2A5081" d="M90.21 62.375h-24.381v-8.127h4.064v4.063h16.254v-4.063h4.064z"> </path>
    <path fill="#F4F5F5" d="M96.305 54.248h20.317v6.095h-20.317v-6.095z"> </path>
    <path fill="#2A5081" d="M118.654 62.375h-24.381v-8.127h4.064v4.063h16.254v-4.063h4.064z"> </path>
    <path fill="#F4F5F5" d="M96.305 96.914h20.317v6.095h-20.317v-6.095z"> </path>
    <path fill="#F4F5F5" d="M67.86 96.914h20.317v6.095h-20.317v-6.095z"> </path>
    <path fill="#F4F5F5" d="M39.416 96.914h20.317v6.095h-20.317v-6.095z"> </path>
    <path fill="#F4F5F5" d="M10.971 96.914h20.317v6.095h-20.317v-6.095z"> </path>
    <path fill="#2A5081" d="M118.654 103.010h-4.064v-4.064h-16.254v4.064h-4.064v-8.127h24.381z"> </path>
    <path fill="#2A5081" d="M90.21 103.010h-4.064v-4.064h-16.254v4.064h-4.064v-8.127h24.381z"> </path>
    <path fill="#2A5081" d="M61.765 103.010h-4.063v-4.064h-16.254v4.064h-4.063v-8.127h24.381z"> </path>
    <path fill="#2A5081" d="M33.321 103.010h-4.064v-4.064h-16.254v4.064h-4.064v-8.127h24.381z"> </path>
    <path fill="#2A5081" d="M13.003 62.375h4.064v32.508h-4.064v-32.508z"> </path>
    <path fill="#2A5081" d="M25.194 62.375h4.064v32.508h-4.064v-32.508z"> </path>
    <path fill="#2A5081" d="M41.448 62.375h4.063v32.508h-4.063v-32.508z"> </path>
    <path fill="#2A5081" d="M53.638 62.375h4.063v32.508h-4.063v-32.508z"> </path>
    <path fill="#2A5081" d="M69.892 62.375h4.064v32.508h-4.064v-32.508z"> </path>
    <path fill="#2A5081" d="M82.082 62.375h4.064v32.508h-4.064v-32.508z"> </path>
    <path fill="#2A5081" d="M98.337 62.375h4.064v32.508h-4.064v-32.508z"> </path>
    <path fill="#2A5081" d="M110.527 62.375h4.064v32.508h-4.064v-32.508z"> </path>
    <path fill="#A7D1EF" d="M6.908 105.041h113.778v16.254h-113.778v-16.254z"> </path>
    <path fill="#2A5081" d="M122.718 123.327h-117.841v-20.317h117.841v20.317zM8.94
                            119.263h109.714v-12.191h-109.714v12.191z"> </path>
    <path fill="#BBBFC3" d="M6.908 46.121h113.778v6.095h-113.778v-6.095z"> </path>
    <path fill="#2A5081" d="M122.718 54.248h-117.841v-8.127h4.064v4.063h109.714v-4.063h4.064z"> </path>
    <path fill="#FFF" d="M71.924 27.835c0 4.488-3.639 8.127-8.127 8.127s-8.127-3.639-8.127-8.127c0-4.488 3.639-8.127
                         8.127-8.127s8.127 3.639 8.127 8.127z"> </path>
    <path fill="#2A5081" d="M8.94 111.136h109.714v4.064h-109.714v-4.064z"> </path>
    <path fill="#F4F5F5" d="M45.511 62.375h8.127v32.508h-8.127v-32.508z"> </path>
    <path fill="#F4F5F5" d="M17.067 62.375h8.127v32.508h-8.127v-32.508z"> </path>
    <path fill="#F4F5F5" d="M73.956 62.375h8.127v32.508h-8.127v-32.508z"> </path>
    <path fill="#F4F5F5" d="M102.4 62.375h8.127v32.508h-8.127v-32.508z"> </path>
  </svg>

  <svg id="icon-category_74" viewBox="0 0 128 128" x="0" y="0">
    <path fill="#A7D1EF" d="M128 64c0 35.346-28.654 64-64 64s-64-28.654-64-64c0-35.346 28.654-64 64-64s64 28.654 64
                            64z"> </path>
    <path fill="#2A5081" d="M8 18h-4v-12c0-1.2 0.8-2 2-2h12v4h-10v10z"> </path>
    <path fill="#2A5081" d="M124 18h-4v-10h-10v-4h12c1.2 0 2 0.8 2 2v12z"> </path>
    <path fill="#2A5081" d="M18 124h-12c-1.2 0-2-0.8-2-2v-12h4v10h10v4z"> </path>
    <path fill="#2A5081" d="M122 124h-12v-4h10v-10h4v12c0 1.2-0.8 2-2 2z"> </path>
    <path fill="#FFF" d="M14 38h36v68h-36v-68z"> </path>
    <path fill="#FFF" d="M50 14h64v92h-64v-92z"> </path>
    <path fill="#BBBFC3" d="M14 106h100v8h-100v-8z"> </path>
    <path fill="#2A5081" d="M114 116h-100c-1.2 0-2-0.8-2-2v-8c0-1.2 0.8-2 2-2h100c1.2 0 2 0.8 2 2v8c0 1.2-0.8 2-2 2zM16
                            112h96v-4h-96v4z"> </path>
    <path fill="#2A5081" d="M16 100h-4v-62c0-1.2 0.8-2 2-2h36v4h-34v60z"> </path>
    <path fill="#2A5081" d="M116 100h-4v-84h-60v84h-4v-86c0-1.2 0.8-2 2-2h64c1.2 0 2 0.8 2 2v86z"> </path>
    <path fill="#2A5081" d="M22 48h4v4h-4v-4z"> </path>
    <path fill="#2A5081" d="M30 48h4v4h-4v-4z"> </path>
    <path fill="#2A5081" d="M38 48h4v4h-4v-4z"> </path>
    <path fill="#2A5081" d="M22 56h4v4h-4v-4z"> </path>
    <path fill="#2A5081" d="M30 56h4v4h-4v-4z"> </path>
    <path fill="#2A5081" d="M38 56h4v4h-4v-4z"> </path>
    <path fill="#2A5081" d="M22 64h4v4h-4v-4z"> </path>
    <path fill="#2A5081" d="M30 64h4v4h-4v-4z"> </path>
    <path fill="#2A5081" d="M38 64h4v4h-4v-4z"> </path>
    <path fill="#2A5081" d="M22 72h4v4h-4v-4z"> </path>
    <path fill="#2A5081" d="M30 72h4v4h-4v-4z"> </path>
    <path fill="#2A5081" d="M38 72h4v4h-4v-4z"> </path>
    <path fill="#2A5081" d="M22 80h4v4h-4v-4z"> </path>
    <path fill="#2A5081" d="M30 80h4v4h-4v-4z"> </path>
    <path fill="#2A5081" d="M38 80h4v4h-4v-4z"> </path>
    <path fill="#2A5081" d="M22 88h4v4h-4v-4z"> </path>
    <path fill="#2A5081" d="M30 88h4v4h-4v-4z"> </path>
    <path fill="#2A5081" d="M38 88h4v4h-4v-4z"> </path>
    <path fill="#2A5081" d="M90 108h-16c-1.2 0-2-0.8-2-2v-16c0-1.2 0.8-2 2-2h16c1.2 0 2 0.8 2 2v16c0 1.2-0.8 2-2 2zM76
                            104h12v-12h-12v12z"> </path>
    <path fill="#2A5081" d="M70 36h-8c-1.2 0-2-0.8-2-2v-8c0-1.2 0.8-2 2-2h8c1.2 0 2 0.8 2 2v8c0 1.2-0.8 2-2 2zM64
                            32h4v-4h-4v4z"> </path>
    <path fill="#2A5081" d="M86 36h-8c-1.2 0-2-0.8-2-2v-8c0-1.2 0.8-2 2-2h8c1.2 0 2 0.8 2 2v8c0 1.2-0.8 2-2 2zM80
                            32h4v-4h-4v4z"> </path>
    <path fill="#2A5081" d="M102 36h-8c-1.2 0-2-0.8-2-2v-8c0-1.2 0.8-2 2-2h8c1.2 0 2 0.8 2 2v8c0 1.2-0.8 2-2 2zM96
                            32h4v-4h-4v4z"> </path>
    <path fill="#2A5081" d="M70 52h-8c-1.2 0-2-0.8-2-2v-8c0-1.2 0.8-2 2-2h8c1.2 0 2 0.8 2 2v8c0 1.2-0.8 2-2 2zM64
                            48h4v-4h-4v4z"> </path>
    <path fill="#2A5081" d="M86 52h-8c-1.2 0-2-0.8-2-2v-8c0-1.2 0.8-2 2-2h8c1.2 0 2 0.8 2 2v8c0 1.2-0.8 2-2 2zM80
                            48h4v-4h-4v4z"> </path>
    <path fill="#2A5081" d="M102 52h-8c-1.2 0-2-0.8-2-2v-8c0-1.2 0.8-2 2-2h8c1.2 0 2 0.8 2 2v8c0 1.2-0.8 2-2 2zM96
                            48h4v-4h-4v4z"> </path>
    <path fill="#2A5081" d="M70 68h-8c-1.2 0-2-0.8-2-2v-8c0-1.2 0.8-2 2-2h8c1.2 0 2 0.8 2 2v8c0 1.2-0.8 2-2 2zM64
                            64h4v-4h-4v4z"> </path>
    <path fill="#2A5081" d="M86 68h-8c-1.2 0-2-0.8-2-2v-8c0-1.2 0.8-2 2-2h8c1.2 0 2 0.8 2 2v8c0 1.2-0.8 2-2 2zM80
                            64h4v-4h-4v4z"> </path>
    <path fill="#2A5081" d="M102 68h-8c-1.2 0-2-0.8-2-2v-8c0-1.2 0.8-2 2-2h8c1.2 0 2 0.8 2 2v8c0 1.2-0.8 2-2 2zM96
                            64h4v-4h-4v4z"> </path>
    <path fill="#2A5081" d="M70 84h-8c-1.2 0-2-0.8-2-2v-8c0-1.2 0.8-2 2-2h8c1.2 0 2 0.8 2 2v8c0 1.2-0.8 2-2 2zM64
                            80h4v-4h-4v4z"> </path>
    <path fill="#2A5081" d="M86 84h-8c-1.2 0-2-0.8-2-2v-8c0-1.2 0.8-2 2-2h8c1.2 0 2 0.8 2 2v8c0 1.2-0.8 2-2 2zM80
                            80h4v-4h-4v4z"> </path>
    <path fill="#2A5081" d="M102 84h-8c-1.2 0-2-0.8-2-2v-8c0-1.2 0.8-2 2-2h8c1.2 0 2 0.8 2 2v8c0 1.2-0.8 2-2 2zM96
                            80h4v-4h-4v4z"> </path>
    <path fill="#2A5081" d="M60 88h8v4h-8v-4z"> </path>
    <path fill="#2A5081" d="M96 88h8v4h-8v-4z"> </path>
  </svg>

  <svg id="icon-category_79" viewBox="0 0 128 128" x="0" y="0">
    <path fill="#FFF" d="M0 33.032h107.355v82.581h-107.355v-82.581z"> </path>
    <path fill="#BBBFC3" d="M24.774 16.516h99.097v74.323h-99.097v-74.323z"> </path>
    <path fill="#FFF" d="M28.903 20.645h90.839v66.064h-90.839v-66.064z"> </path>
    <path fill="#A7D1EF" d="M80.516 86.71h-51.613v-18.581l16.516-16.516z"> </path>
    <path fill="#A7D1EF" d="M80.516 86.71l-16.516-16.516 37.161-37.161 18.581 18.581v35.097z"> </path>
    <path fill="#2A5081" d="M78.452 86.71c-0.619 0-1.032-0.207-1.445-0.619l-31.587-31.587-13.007 13.007c-0.826
                            0.826-2.064 0.826-2.89 0s-0.826-2.064 0-2.89l15.897-15.897 34.477 34.477c0.826 0.826 0.826
                            2.064 0 2.89-0.413 0.413-0.826 0.619-1.445 0.619z"> </path>
    <path fill="#2A5081" d="M64 72.258c-0.619 0-1.032-0.207-1.445-0.619-0.826-0.826-0.826-2.064 0-2.89l38.606-38.606
                            17.961 17.961c0.826 0.826 0.826 2.065 0 2.89s-2.064 0.826-2.89 0l-15.071-15.071-35.716
                            35.716c-0.413 0.413-0.826 0.619-1.445 0.619z"> </path>
    <path fill="#A7D1EF" d="M72.258 37.161c0 4.561-3.697 8.258-8.258 8.258s-8.258-3.697-8.258-8.258c0-4.561 3.697-8.258
                            8.258-8.258s8.258 3.697 8.258 8.258z"> </path>
    <path fill="#2A5081" d="M128 94.968h-107.355v-82.581h107.355v82.581zM24.774
                            90.839h99.097v-74.323h-99.097v74.323z"> </path>
    <path fill="#2A5081" d="M12.387 33.032h8.258v4.129h-8.258v-4.129z"> </path>
    <path fill="#2A5081" d="M0 33.032h8.258v4.129h-8.258v-4.129z"> </path>
    <path fill="#2A5081" d="M0 35.097h4.129v6.194h-4.129v-6.194z"> </path>
    <path fill="#2A5081" d="M0 45.419h4.129v8.258h-4.129v-8.258z"> </path>
    <path fill="#2A5081" d="M0 57.806h4.129v8.258h-4.129v-8.258z"> </path>
    <path fill="#2A5081" d="M0 70.194h4.129v8.258h-4.129v-8.258z"> </path>
    <path fill="#2A5081" d="M0 82.581h4.129v8.258h-4.129v-8.258z"> </path>
    <path fill="#2A5081" d="M0 94.968h4.129v8.258h-4.129v-8.258z"> </path>
    <path fill="#2A5081" d="M0 107.355h4.129v8.258h-4.129v-8.258z"> </path>
    <path fill="#2A5081" d="M2.064 111.484h6.193v4.129h-6.194v-4.129z"> </path>
    <path fill="#2A5081" d="M12.387 111.484h8.258v4.129h-8.258v-4.129z"> </path>
    <path fill="#2A5081" d="M24.774 111.484h8.258v4.129h-8.258v-4.129z"> </path>
    <path fill="#2A5081" d="M37.161 111.484h8.258v4.129h-8.258v-4.129z"> </path>
    <path fill="#2A5081" d="M49.548 111.484h8.258v4.129h-8.258v-4.129z"> </path>
    <path fill="#2A5081" d="M61.935 111.484h8.258v4.129h-8.258v-4.129z"> </path>
    <path fill="#2A5081" d="M74.323 111.484h8.258v4.129h-8.258v-4.129z"> </path>
    <path fill="#2A5081" d="M86.71 111.484h8.258v4.129h-8.258v-4.129z"> </path>
    <path fill="#2A5081" d="M99.097 111.484h8.258v4.129h-8.258v-4.129z"> </path>
    <path fill="#2A5081" d="M103.226 107.355h4.129v6.194h-4.129v-6.194z"> </path>
    <path fill="#2A5081" d="M103.226 94.968h4.129v8.258h-4.129v-8.258z"> </path>
  </svg>

  <svg id="icon-category_80" viewBox="0 0 128 128" x="0 " y="0">
    <path fill="#FFF" d="M32 10.667h81.067v106.667h-81.067v-106.667z"> </path>
    <path fill="#A7D1EF" d="M23.467 2.133c-4.693 0-8.533 3.84-8.533
                            8.533v106.667h17.067v-106.667c0-4.693-3.84-8.533-8.533-8.533z"> </path>
    <path fill="#BBBFC3" stroke="#295182" stroke-linejoin="miter" stroke-linecap="butt" stroke-miterlimit="10"
          stroke-width="4.2667" d="M32 117.333c0-4.693-3.84-8.533-8.533-8.533s-8.533 3.84-8.533 8.533 3.84 8.533 8.533
                                   8.533h76.8v-8.533h-68.267z"> </path>
    <path fill="#295182" d="M115.2 119.467h-85.333v-110.933h85.333v110.933zM34.133
                            115.2h76.8v-102.4h-76.8v102.4z"> </path>
    <path fill="#295182" d="M23.467 128c-5.973 0-10.667-4.693-10.667-10.667s4.693-10.667 10.667-10.667c5.973 0 10.667
                            4.693 10.667 10.667h-4.267c0-3.627-2.773-6.4-6.4-6.4s-6.4 2.773-6.4 6.4 2.773 6.4 6.4
                            6.4v4.267z"> </path>
    <path fill="#295182" d="M102.4 128h-78.933v-4.267h74.667v-6.4h4.267z"> </path>
    <path fill="#295182" d="M17.067 117.333h-4.267v-106.667c0-5.973 4.693-10.667 10.667-10.667s10.667 4.693 10.667
                            10.667h-4.267c0-3.627-2.773-6.4-6.4-6.4s-6.4 2.773-6.4 6.4v106.667z"> </path>
    <path fill="#A7D1EF" d="M42.667 34.133h27.733v25.6h-27.733v-25.6z"> </path>
    <path fill="#A7D1EF" d="M74.667 34.133h27.733v25.6h-27.733v-25.6z"> </path>
    <path fill="#A7D1EF" d="M42.667 64h27.733v25.6h-27.733v-25.6z"> </path>
    <path fill="#A7D1EF" d="M74.667 64h27.733v25.6h-27.733v-25.6z"> </path>
    <path fill="#295182" d="M42.667 21.333h40.533v4.267h-40.533v-4.267z"> </path>
    <path fill="#295182" d="M42.667 93.867h17.067v4.267h-17.067v-4.267z"> </path>
    <path fill="#295182" d="M64 93.867h38.4v4.267h-38.4v-4.267z"> </path>
    <path fill="#295182" d="M85.333 102.4h17.067v4.267h-17.067v-4.267z"> </path>
    <path fill="#295182" d="M42.667 102.4h38.4v4.267h-38.4v-4.267z"> </path>
  </svg>

  <svg id="icon-category_81" viewBox="0 0 100 128" x="0" y="0">
    <path fill="#BBBFC3" d="M90 50c0 22.091-17.909 40-40 40s-40-17.909-40-40c0-22.091 17.909-40 40-40s40 17.909 40
                            40z"> </path>
    <path fill="#FFF" d="M42 2h16v8h-16v-8z"> </path>
    <path fill="#FFF" d="M90 42h8v16h-8v-16z"> </path>
    <path fill="#FFF" d="M2 42h8v16h-8v-16z"> </path>
    <path fill="#FFF" d="M28 18l-8-6-10 10 6 8z"> </path>
    <path fill="#FFF" d="M28 82l-8 6-10-10 6-8z"> </path>
    <path fill="#FFF" d="M72 18l8-6 10 10-6 8z"> </path>
    <path fill="#FFF" d="M72 82l8 6 10-10-6-8z"> </path>
    <path fill="#2A5081" d="M60 10h-4v-6h-12v6h-4v-10h20z"> </path>
    <path fill="#2A5081" d="M100 60h-10v-4h6v-12h-6v-4h10z"> </path>
    <path fill="#2A5081" d="M10 60h-10v-20h10v4h-6v12h6z"> </path>
    <path fill="#2A5081" d="M14.4 31.2l-7-9.4 12.4-12.4 9.4 7-2.4 3.2-6.6-5-7.6 7.6 5 6.6z"> </path>
    <path fill="#2A5081" d="M19.8 90.6l-12.4-12.4 7-9.4 3.2 2.4-5 6.6 7.6 7.6 6.6-5 2.4 3.2z"> </path>
    <path fill="#2A5081" d="M85.6 31.2l-3.2-2.4 5-6.6-7.6-7.6-6.6 5-2.4-3.2 9.4-7 12.4 12.4z"> </path>
    <path fill="#2A5081" d="M80.2 90.6l-9.4-7 2.4-3.2 6.6 5 7.6-7.6-5-6.6 3.2-2.4 7 9.4z"> </path>
    <path fill="#2A5081" d="M50 92c-23.2 0-42-18.8-42-42s18.8-42 42-42 42 18.8 42 42-18.8 42-42 42zM50 12c-21 0-38 17-38
                            38s17 38 38 38 38-17 38-38-17-38-38-38z"> </path>
    <path fill="#A7D1EF" d="M80 50c0 16.569-13.431 30-30 30s-30-13.431-30-30c0-16.569 13.431-30 30-30s30 13.431 30
                            30z"> </path>
    <path fill="#A7D1EF" d="M58 78v40c0 4.4-3.6 8-8 8s-8-3.6-8-8v-40h16z"> </path>
    <path fill="#FFF" d="M70 50c0 11.046-8.954 20-20 20s-20-8.954-20-20c0-11.046 8.954-20 20-20s20 8.954 20
                         20z"> </path>
    <path fill="#2A5081" d="M50 82c-17.6 0-32-14.4-32-32s14.4-32 32-32c17.6 0 32 14.4 32 32s-14.4 32-32 32zM50 22c-15.4
                            0-28 12.6-28 28s12.6 28 28 28 28-12.6 28-28-12.6-28-28-28z"> </path>
    <path fill="#2A5081" d="M50 72c-12.2 0-22-9.8-22-22s9.8-22 22-22 22 9.8 22 22-9.8 22-22 22zM50 32c-10 0-18 8-18 18s8
                            18 18 18c10 0 18-8 18-18s-8-18-18-18z"> </path>
    <path fill="#2A5081" d="M42 50h-4c0-6.6 5.4-12 12-12v4c-4.4 0-8 3.6-8 8z"> </path>
    <path fill="#2A5081" d="M50 128c-5.6 0-10-4.4-10-10v-40h4v40c0 3.4 2.6 6 6 6s6-2.6 6-6v-40h4v40c0 5.6-4.4 10-10
                            10z"> </path>
    <path fill="#2A5081" d="M48 96h4v4h-4v-4z"> </path>
    <path fill="#2A5081" d="M48 104h4v4h-4v-4z"> </path>
    <path fill="#2A5081" d="M48 112h4v4h-4v-4z"> </path>
  </svg>

  <svg id="icon-category_92" viewBox="0 0 128 128" x="0" y="0">
    <path fill="#E8E9EA" d="M110 72c0 0 5.8 4.6 10 6 6 2 6 10 6 10v4h-44v-4c0 0 0-8 6-10 4.2-1.4 10-6 10-6h12z"> </path>
    <path fill="#FFF" d="M114 59c0 7-4 13-10 13s-10-6-10-13 2-11 10-11 10 4 10 11z"> </path>
    <path fill="#BBBFC3" d="M104 74c-6.8 0-12-6.4-12-15 0-6 1.4-13 12-13s12 7 12 13c0 8.6-5.2 15-12 15zM104 50c-6 0-8
                            2.2-8 9 0 5.4 2.8 11 8 11s8-5.6 8-11c0-6.8-2-9-8-9z"> </path>
    <path fill="#BBBFC3" d="M128 94h-48v-6c0-0.4 0-9.4 7.4-11.8 3.8-1.2 9.4-5.6 9.4-5.6l2.4 3.2c-0.2 0.2-6 4.8-10.6
                            6.4-4.6 1.2-4.6 7.8-4.6 7.8v2h40v-2c0 0 0-6.6-4.6-8.2s-10.4-6.2-10.6-6.4l2.4-3.2c0 0 5.6
                            4.4 9.4 5.6 7.4 2.8 7.4 11.8 7.4 12.2v6z"> </path>
    <path fill="#E8E9EA" d="M30 72c0 0 5.8 4.6 10 6 6 2 6 10 6 10v4h-44v-4c0 0 0-8 6-10 4.2-1.4 10-6 10-6h12z"> </path>
    <path fill="#FFF" d="M34 59c0 7-4 13-10 13s-10-6-10-13 2-11 10-11 10 4 10 11z"> </path>
    <path fill="#BBBFC3" d="M24 74c-6.8 0-12-6.4-12-15 0-6 1.4-13 12-13s12 7 12 13c0 8.6-5.2 15-12 15zM24 50c-6 0-8
                            2.2-8 9 0 5.4 2.8 11 8 11s8-5.6 8-11c0-6.8-2-9-8-9z"> </path>
    <path fill="#BBBFC3" d="M48 94h-48v-6c0-0.4 0-9.4 7.4-11.8 3.8-1.2 9.4-5.6 9.4-5.6l2.4 3.2c-0.2 0.2-6 4.8-10.6
                            6.4-4.6 1.2-4.6 7.8-4.6 7.8v2h40v-2c0 0 0-6.6-4.6-8.2s-10.4-6.2-10.6-6.4l2.4-3.2c0 0 5.6
                            4.4 9.4 5.6 7.4 2.8 7.4 11.8 7.4 12.2v6z"> </path>
    <path fill="#A7D1EF" d="M80 78c14 8 28 6 28 26v4h-88v-4c0-20 14-18 28-26h32z"> </path>
    <path fill="#FFF" d="M72 86l-8-4-8 4-8-8 4-6h2v-8l10 2 10-2v8h2l4 6z"> </path>
    <path fill="#2A5081"
          d="M110 110h-92v-6c0-16 8.8-19.4 18.4-23 3.4-1.4 7-2.6 10.8-4.8l2 3.4c-3.8 2.2-7.8 3.8-11.2 5-9.4 3.6-15.8
             6-15.8 19.2v2h84v-2c0-13.2-6.2-15.6-15.8-19.2-3.4-1.4-7.4-2.8-11.2-5l2-3.4c3.6 2 7.2 3.4 10.8 4.8 9.2 3.6
             18 7 18 23v6z"> </path>
    <path fill="#2A5081" d="M72.4 88.4l-8.4-4.2-8.4 4.2-10.2-10.2 5.6-8.4 13 2.2 13-2.2 5.6 8.4-10.2 10.2zM64 79.8l7.6
                            3.8 5.8-5.8-2.4-3.6-11 1.8-11-1.8-2.4 3.6 5.8 5.8 7.6-3.8z"> </path>
    <path fill="#2A5081" d="M72 64h4v8h-4v-8z"> </path>
    <path fill="#2A5081" d="M52 64h4v8h-4v-8z"> </path>
    <path fill="#2A5081" d="M62 98h4v4h-4v-4z"> </path>
    <path fill="#2A5081" d="M62 90h4v4h-4v-4z"> </path>
    <path fill="#FFF" d="M82 38v8c-2 14-8 18-8 18-4 2-10 2-10 2s-6 0-10-2c0 0-6-4-8-18v-8l8-4 20 8 8-4z"> </path>
    <path fill="#A7D1EF" d="M46 38c0-12.2 5.8-18 18-18s18 5.8 18 18l-8 4-20-8-8 4z"> </path>
    <path fill="#2A5081" d="M64 68c-0.2 0-6.6 0-10.8-2.2l-0.2-0.2c-0.2-0.2-6.8-4.6-8.8-19.4v-8.2h4v7.8c1.8 11.8 6.4 16 7
                            16.4 3.4 1.8 8.8 1.8 8.8 1.8s5.4 0 9-1.8c0.6-0.6 5.4-4.6 7-16.4v-7.8h4v8.2c-2.2 14.8-8.6
                            19.2-8.8 19.4l-0.2 0.2c-4.4 2.2-10.8 2.2-11 2.2z"> </path>
    <path fill="#2A5081" d="M84 38h-4c0-11-5-16-16-16s-16 5-16 16h-4c0-13.2 6.8-20 20-20s20 6.8 20 20z"> </path>
    <path fill="#2A5081" d="M74 44.2l-20-8-7.2 3.6-1.6-3.6 8.8-4.4 20 8 7.2-3.6 1.6 3.6z" > </path>
  </svg>

  <svg id="icon-category_93" viewBox="0 0 128 128" x="0" y="0">
    <path fill="#FFF" d="M108 94c-5.6 0-10-4.4-10-10s4.4-10 10-10h-84c-5.6 0-10 4.4-10 10s4.4 10 10 10h84z"> </path>
    <path fill="#BBBFC3" d="M10 94h104v12h-104v-12z"> </path>
    <path fill="#A7D1EF" d="M2 106h124v20h-124v-20z"> </path>
    <path fill="#2A5081" d="M58 8h4v16h-4v-16z"> </path>
    <path fill="#A7D1EF" d="M42 20c-7.2 2-13.8 9.6-12 20 6 34 26 36 30 28v-44c-4 0-4-8-18-4z"> </path>
    <path fill="#A7D1EF" d="M90 40c1.8-10.2-4.8-18-12-20-14-4-14 4-18 4v44c4 8 24 6 30-28z"> </path>
    <path fill="#A7D1EF" d="M74 12c-4 4-12 4-12 4s0-8 4-12c4-4 12-4 12-4s0 8-4 12z"> </path>
    <path fill="#2A5081" d="M62 42h4v8h-4v-8z"> </path>
    <path fill="#2A5081" d="M54 42h4v8h-4v-8z"> </path>
    <path fill="#2A5081" d="M108 96h-84c-6.6 0-12-5.4-12-12s5.4-12 12-12h84v4c-4.4 0-8 3.6-8 8s3.6 8 8 8v4zM24 76c-4.4
                            0-8 3.6-8 8s3.6 8 8 8h75c-2-2.2-3-5-3-8s1.2-5.8 3-8h-75z"> </path>
    <path fill="#2A5081" d="M116 108h-108v-16h108v16zM12 104h100v-8h-100v8z"> </path>
    <path fill="#2A5081" d="M128 128h-128v-24h128v24zM4 124h120v-16h-120v16z"> </path>
    <path fill="#2A5081" d="M24 94h4v12h-4v-12z"> </path>
    <path fill="#2A5081" d="M28 106h4v20h-4v-20z"> </path>
    <path fill="#2A5081" d="M32 94h4v12h-4v-12z"> </path>
    <path fill="#2A5081" d="M40 94h4v12h-4v-12z"> </path>
    <path fill="#FFF" d="M20 116c0 2.209-1.791 4-4 4s-4-1.791-4-4c0-2.209 1.791-4 4-4s4 1.791 4 4z"> </path>
    <path fill="#2A5081" d="M112 114h4v4h-4v-4z"> </path>
    <path fill="#2A5081" d="M104 114h4v4h-4v-4z"> </path>
    <path fill="#2A5081" d="M96 114h4v4h-4v-4z"> </path>
  </svg>
</svg>
